<svg xmlns="http://www.w3.org/2000/svg" xmlns:xlink="http://www.w3.org/1999/xlink" width="500" zoomAndPan="magnify" viewBox="0 0 375 374.999991" height="500" preserveAspectRatio="xMidYMid meet" version="1.0"><defs><g/><clipPath id="a5c7a52d7b"><path d="M 87.992188 140.445312 L 157.332031 140.445312 L 157.332031 211.699219 L 87.992188 211.699219 Z M 87.992188 140.445312 " clip-rule="nonzero"/></clipPath></defs><rect x="-37.5" width="450" fill="#ffffff" y="-37.499999" height="449.999989" fill-opacity="1"/><rect x="-37.5" width="450" fill="#ffffff" y="-37.499999" height="449.999989" fill-opacity="1"/><g clip-path="url(#a5c7a52d7b)"><path fill="#ffffff" d="M 87.992188 140.445312 L 157.332031 140.445312 L 157.332031 211.699219 L 87.992188 211.699219 Z M 87.992188 140.445312 " fill-opacity="1" fill-rule="nonzero"/></g><path fill="#2c3892" d="M 138.945312 189.675781 C 139.527344 189.15625 140.039062 188.519531 140.46875 187.777344 C 141.140625 187.453125 142.050781 187.011719 142.902344 186.4375 C 141.753906 187.6875 140.425781 188.785156 138.945312 189.675781 Z M 137.648438 190.390625 C 136.441406 190.988281 135.148438 191.457031 133.785156 191.78125 C 133.085938 191.945312 132.386719 192.066406 131.6875 192.144531 C 131.15625 191.972656 130.59375 191.519531 130.023438 190.8125 C 133.214844 190.320312 136.480469 189.421875 139.136719 188.351562 C 138.742188 189.199219 138.246094 189.886719 137.648438 190.390625 Z M 123.304688 191.101562 C 124.527344 191.257812 126.101562 191.257812 127.972656 191.074219 C 128.101562 191.0625 128.234375 191.046875 128.367188 191.03125 C 129.0625 191.660156 129.773438 192.074219 130.480469 192.242188 C 127.988281 192.359375 125.550781 191.953125 123.304688 191.101562 Z M 113.757812 182.691406 C 113.28125 181.644531 112.894531 180.527344 112.617188 179.34375 C 112.386719 178.378906 112.234375 177.40625 112.15625 176.429688 C 114.011719 177.21875 117.363281 177.484375 121.835938 177.046875 C 122.03125 177.027344 122.226562 177.007812 122.421875 176.984375 C 122.589844 177.964844 122.785156 178.9375 123.015625 179.902344 C 124.050781 184.277344 125.578125 187.707031 127.269531 189.84375 C 127.117188 189.863281 126.964844 189.878906 126.8125 189.890625 C 124.175781 190.152344 122.042969 190.09375 120.546875 189.78125 C 117.714844 188.117188 115.34375 185.683594 113.757812 182.691406 Z M 124.902344 176.65625 C 129.667969 175.917969 134.546875 174.574219 138.519531 172.976562 C 138.824219 173.921875 139.089844 174.878906 139.320312 175.84375 C 140.355469 180.214844 140.425781 184.007812 139.707031 186.746094 C 136.636719 187.984375 132.863281 189.019531 129.183594 189.589844 C 127.863281 187.402344 126.5625 183.941406 125.523438 179.570312 C 125.296875 178.605469 125.085938 177.632812 124.902344 176.65625 Z M 144.785156 183.992188 C 144.144531 184.507812 143.148438 185.199219 141.242188 186.085938 C 142.261719 183.214844 142.371094 179.347656 141.335938 174.972656 C 141.105469 174.007812 140.828125 173.054688 140.511719 172.117188 C 141.011719 171.875 141.605469 171.589844 142.230469 171.253906 C 141.707031 170.445312 141.128906 169.683594 140.5 168.96875 C 140.167969 169.132812 139.828125 169.296875 139.476562 169.460938 C 139.050781 168.492188 138.578125 167.550781 138.074219 166.644531 C 137.011719 165.789062 135.863281 165.042969 134.652344 164.425781 C 135.738281 166.21875 136.726562 168.199219 137.558594 170.289062 C 133.726562 171.832031 129.019531 173.128906 124.421875 173.839844 C 123.804688 169.695312 123.578125 165.667969 123.753906 162.375 C 123.5625 162.367188 123.308594 162.347656 123.089844 162.375 C 122.832031 162.410156 122.5625 162.457031 122.3125 162.578125 C 121.699219 165.925781 121.585938 169.992188 122.03125 174.15625 C 121.84375 174.175781 121.652344 174.195312 121.464844 174.214844 C 117.152344 174.636719 113.921875 174.382812 112.132812 173.621094 C 112.292969 171.015625 112.957031 168.464844 114.042969 166.121094 C 113.214844 166.488281 112.054688 167.261719 111.28125 168.074219 C 110.398438 169 109.875 169.789062 109.144531 171.371094 C 108.925781 173.566406 109.058594 175.839844 109.59375 178.109375 C 112.179688 189.101562 123.171875 195.914062 134.148438 193.324219 C 138.429688 192.3125 142.074219 190.015625 144.777344 186.945312 C 144.984375 186.558594 145.28125 185.746094 145.382812 185.097656 C 145.484375 184.429688 145.5 183.554688 145.382812 182.992188 C 145.195312 183.332031 144.996094 183.667969 144.785156 183.992188 " fill-opacity="1" fill-rule="nonzero"/><path fill="#3871c1" d="M 125.777344 171.992188 C 126.789062 171.804688 127.816406 171.589844 128.839844 171.347656 C 131.136719 170.804688 133.390625 170.136719 135.449219 169.386719 C 134.457031 167.164062 133.292969 165.101562 132.03125 163.316406 C 130.996094 162.964844 130.023438 162.449219 128.933594 162.273438 C 127.789062 162.089844 126.53125 162.253906 125.351562 162.277344 C 125.1875 165.082031 125.332031 168.457031 125.777344 171.992188 " fill-opacity="1" fill-rule="nonzero"/><path fill="#3871c1" d="M 121.125 178.710938 C 118.917969 178.890625 116.3125 178.949219 114.078125 178.589844 C 114.105469 178.71875 114.132812 178.847656 114.164062 178.976562 C 114.410156 180.019531 114.757812 181.03125 115.1875 181.984375 C 116.5625 184.570312 118.613281 186.734375 121.121094 188.265625 C 121.839844 188.394531 122.914062 188.496094 124.457031 188.449219 C 123.242188 186.242188 122.222656 183.46875 121.464844 180.273438 C 121.34375 179.757812 121.230469 179.238281 121.125 178.710938 " fill-opacity="1" fill-rule="nonzero"/><path fill="#51ade5" d="M 132.648438 187.289062 C 134.640625 186.816406 136.589844 186.226562 138.339844 185.570312 C 138.8125 183.0625 138.617188 179.78125 137.769531 176.210938 C 137.679688 175.835938 137.585938 175.460938 137.480469 175.082031 C 135.21875 175.90625 132.742188 176.644531 130.226562 177.238281 C 130.226562 177.238281 130.226562 177.238281 130.222656 177.238281 C 129.078125 177.507812 127.929688 177.75 126.789062 177.957031 C 126.882812 178.375 126.976562 178.792969 127.074219 179.203125 C 127.902344 182.695312 128.9375 185.707031 130.027344 187.832031 C 130.894531 187.675781 131.773438 187.496094 132.648438 187.289062 " fill-opacity="1" fill-rule="nonzero"/><path fill="#51ade5" d="M 126.414062 160.824219 C 126.09375 160.902344 125.769531 160.972656 125.449219 161.035156 C 125.410156 161.433594 125.375 161.851562 125.351562 162.277344 C 127.65625 162.234375 129.914062 162.597656 132.03125 163.316406 C 131.140625 162.058594 130.203125 160.9375 129.246094 160 C 128.351562 160.3125 127.390625 160.59375 126.414062 160.824219 " fill-opacity="1" fill-rule="nonzero"/><path fill="#a7a5a6" d="M 119.40625 161.390625 C 119.039062 161.6875 118.679688 162.003906 118.335938 162.332031 C 117.769531 162.996094 117.253906 163.695312 116.78125 164.425781 C 117.988281 163.8125 119.277344 163.3125 120.636719 162.949219 C 120.714844 162.457031 120.804688 161.980469 120.902344 161.511719 C 120.351562 161.503906 119.855469 161.464844 119.40625 161.390625 " fill-opacity="1" fill-rule="nonzero"/><path fill="#888687" d="M 113.835938 172.484375 C 115.003906 172.746094 117.019531 172.964844 120.304688 172.714844 C 120.042969 169.25 120.164062 165.878906 120.636719 162.949219 C 119.277344 163.3125 117.988281 163.8125 116.78125 164.425781 C 115.21875 166.859375 114.203125 169.625 113.835938 172.484375 " fill-opacity="1" fill-rule="nonzero"/><path fill="#888687" d="M 143.046875 172.628906 C 142.839844 172.738281 142.636719 172.84375 142.441406 172.945312 C 142.605469 173.5 142.753906 174.054688 142.882812 174.605469 C 143.421875 176.871094 143.679688 179.0625 143.652344 181.113281 C 143.644531 181.738281 143.609375 182.347656 143.546875 182.9375 C 143.5625 182.925781 143.574219 182.917969 143.585938 182.90625 C 144.277344 181.792969 144.828125 180.617188 145.234375 179.40625 C 145.148438 178.761719 145.03125 178.117188 144.878906 177.472656 C 144.472656 175.742188 143.847656 174.121094 143.046875 172.628906 " fill-opacity="1" fill-rule="nonzero"/><path fill="#a7a5a6" d="M 143.046875 172.628906 C 143.847656 174.121094 144.472656 175.742188 144.878906 177.472656 C 145.03125 178.117188 145.148438 178.761719 145.234375 179.40625 C 146.136719 176.703125 146.3125 173.808594 145.730469 170.949219 C 144.851562 171.609375 143.914062 172.164062 143.046875 172.628906 " fill-opacity="1" fill-rule="nonzero"/><path fill="#6ed0eb" d="M 143.222656 165.351562 C 141.515625 162.839844 139.203125 160.753906 136.46875 159.28125 C 135.527344 158.847656 134.550781 158.507812 133.546875 158.261719 C 136.121094 160.601562 138.453125 163.753906 140.226562 167.3125 C 141.484375 166.648438 142.5 165.984375 143.222656 165.351562 " fill-opacity="1" fill-rule="nonzero"/><path fill="#3871c1" d="M 128.554688 156.695312 C 128.265625 156.554688 127.980469 156.425781 127.691406 156.308594 C 128.285156 156.242188 128.878906 156.207031 129.46875 156.199219 C 129.207031 156.367188 128.898438 156.535156 128.554688 156.695312 Z M 124.351562 157.917969 C 124.441406 157.558594 124.539062 157.222656 124.648438 156.914062 C 124.9375 156.828125 125.230469 156.75 125.523438 156.683594 C 126.054688 156.558594 126.582031 156.457031 127.109375 156.382812 C 127.410156 156.542969 127.714844 156.726562 128.019531 156.925781 C 126.949219 157.355469 125.632812 157.71875 124.351562 157.917969 Z M 123.683594 158.007812 C 123.628906 158.011719 123.578125 158.015625 123.523438 158.023438 C 122.8125 158.09375 122.203125 158.097656 121.722656 158.042969 C 122.507812 157.65625 123.328125 157.328125 124.183594 157.054688 C 124.007812 157.351562 123.839844 157.667969 123.683594 158.007812 Z M 144.777344 186.945312 C 149 182.140625 150.910156 175.425781 149.332031 168.722656 C 146.746094 157.726562 135.753906 150.917969 124.777344 153.507812 C 116.070312 155.566406 109.992188 162.925781 109.144531 171.371094 C 110.433594 169.351562 112.089844 167.566406 114.042969 166.121094 C 114.859375 164.355469 115.917969 162.703125 117.179688 161.234375 C 117.757812 160.675781 118.375 160.152344 119.03125 159.671875 C 119.828125 159.921875 121.101562 159.992188 122.75 159.832031 C 122.832031 159.824219 122.910156 159.816406 122.992188 159.804688 C 122.722656 160.65625 122.496094 161.585938 122.3125 162.578125 C 122.792969 162.492188 123.273438 162.425781 123.753906 162.375 C 123.804688 161.40625 123.890625 160.5 124.011719 159.671875 C 125.96875 159.367188 127.976562 158.816406 129.609375 158.160156 C 131.382812 159.722656 133.117188 161.886719 134.652344 164.425781 C 135.863281 165.042969 137.011719 165.789062 138.074219 166.644531 C 135.988281 162.910156 133.28125 159.773438 130.425781 157.804688 C 131.332031 157.386719 132.074219 156.9375 132.554688 156.488281 C 132.574219 156.472656 132.589844 156.457031 132.605469 156.441406 C 134.195312 156.707031 135.734375 157.183594 137.179688 157.851562 C 140.480469 159.621094 143.308594 162.285156 145.226562 165.542969 C 145.027344 165.808594 144.773438 166.085938 144.464844 166.375 C 143.527344 167.25 142.160156 168.128906 140.5 168.96875 C 141.128906 169.683594 141.707031 170.445312 142.230469 171.253906 C 143.386719 170.640625 144.652344 169.871094 145.6875 168.917969 C 146.007812 168.621094 146.269531 168.332031 146.476562 168.054688 C 146.730469 168.675781 146.949219 169.3125 147.140625 169.960938 C 147.148438 170.003906 147.160156 170.050781 147.171875 170.09375 C 148.242188 174.648438 147.488281 179.203125 145.382812 182.992188 C 145.316406 184.339844 145.109375 185.664062 144.777344 186.945312 " fill-opacity="1" fill-rule="nonzero"/><g fill="#004aad" fill-opacity="1"><g transform="translate(150.757845, 188.447508)"><g><path d="M 21.5 -23.609375 L 13.46875 0 L 8.015625 0 L 0 -23.609375 L 5.0625 -23.609375 L 9.5 -9.5625 C 9.570312 -9.320312 9.691406 -8.875 9.859375 -8.21875 C 10.035156 -7.570312 10.210938 -6.882812 10.390625 -6.15625 C 10.566406 -5.4375 10.6875 -4.835938 10.75 -4.359375 C 10.820312 -4.835938 10.941406 -5.4375 11.109375 -6.15625 C 11.273438 -6.875 11.441406 -7.554688 11.609375 -8.203125 C 11.773438 -8.859375 11.894531 -9.3125 11.96875 -9.5625 L 16.4375 -23.609375 Z M 21.5 -23.609375 "/></g></g></g><g fill="#004aad" fill-opacity="1"><g transform="translate(172.257939, 188.447508)"><g><path d="M 12.84375 -18.390625 C 14.769531 -18.390625 16.316406 -17.863281 17.484375 -16.8125 C 18.660156 -15.769531 19.25 -14.09375 19.25 -11.78125 L 19.25 0 L 14.328125 0 L 14.328125 -10.546875 C 14.328125 -11.835938 14.09375 -12.8125 13.625 -13.46875 C 13.15625 -14.125 12.421875 -14.453125 11.421875 -14.453125 C 9.910156 -14.453125 8.878906 -13.941406 8.328125 -12.921875 C 7.785156 -11.898438 7.515625 -10.425781 7.515625 -8.5 L 7.515625 0 L 2.578125 0 L 2.578125 -18.0625 L 6.34375 -18.0625 L 7.015625 -15.75 L 7.28125 -15.75 C 7.664062 -16.375 8.144531 -16.878906 8.71875 -17.265625 C 9.300781 -17.648438 9.941406 -17.929688 10.640625 -18.109375 C 11.347656 -18.296875 12.082031 -18.390625 12.84375 -18.390625 Z M 12.84375 -18.390625 "/></g></g></g><g fill="#004aad" fill-opacity="1"><g transform="translate(194.000327, 188.447508)"><g><path d="M 23.921875 0 L 17.5625 0 L 7.28125 -17.859375 L 7.140625 -17.859375 C 7.179688 -17.117188 7.21875 -16.367188 7.25 -15.609375 C 7.28125 -14.859375 7.3125 -14.109375 7.34375 -13.359375 C 7.375 -12.617188 7.410156 -11.867188 7.453125 -11.109375 L 7.453125 0 L 2.96875 0 L 2.96875 -23.609375 L 9.28125 -23.609375 L 19.546875 -5.921875 L 19.65625 -5.921875 C 19.632812 -6.660156 19.609375 -7.390625 19.578125 -8.109375 C 19.546875 -8.828125 19.515625 -9.546875 19.484375 -10.265625 C 19.460938 -10.992188 19.4375 -11.71875 19.40625 -12.4375 L 19.40625 -23.609375 L 23.921875 -23.609375 Z M 23.921875 0 "/></g></g></g><g fill="#004aad" fill-opacity="1"><g transform="translate(220.895635, 188.447508)"><g><path d="M 10.03125 -18.390625 C 11.695312 -18.390625 13.132812 -18.066406 14.34375 -17.421875 C 15.550781 -16.785156 16.484375 -15.859375 17.140625 -14.640625 C 17.796875 -13.429688 18.125 -11.945312 18.125 -10.1875 L 18.125 -7.796875 L 6.484375 -7.796875 C 6.535156 -6.410156 6.953125 -5.320312 7.734375 -4.53125 C 8.515625 -3.738281 9.597656 -3.34375 10.984375 -3.34375 C 12.140625 -3.34375 13.195312 -3.457031 14.15625 -3.6875 C 15.113281 -3.925781 16.097656 -4.285156 17.109375 -4.765625 L 17.109375 -0.953125 C 16.210938 -0.515625 15.273438 -0.191406 14.296875 0.015625 C 13.328125 0.222656 12.144531 0.328125 10.75 0.328125 C 8.945312 0.328125 7.347656 -0.00390625 5.953125 -0.671875 C 4.554688 -1.347656 3.460938 -2.367188 2.671875 -3.734375 C 1.878906 -5.097656 1.484375 -6.820312 1.484375 -8.90625 C 1.484375 -11.007812 1.84375 -12.765625 2.5625 -14.171875 C 3.28125 -15.578125 4.28125 -16.628906 5.5625 -17.328125 C 6.84375 -18.035156 8.332031 -18.390625 10.03125 -18.390625 Z M 10.0625 -14.890625 C 9.101562 -14.890625 8.304688 -14.582031 7.671875 -13.96875 C 7.046875 -13.351562 6.6875 -12.390625 6.59375 -11.078125 L 13.5 -11.078125 C 13.488281 -11.804688 13.359375 -12.457031 13.109375 -13.03125 C 12.859375 -13.601562 12.476562 -14.054688 11.96875 -14.390625 C 11.46875 -14.722656 10.832031 -14.890625 10.0625 -14.890625 Z M 10.0625 -14.890625 "/></g></g></g><g fill="#004aad" fill-opacity="1"><g transform="translate(240.44117, 188.447508)"><g><path d="M 17.421875 0 L 16.03125 -6.3125 C 15.957031 -6.6875 15.832031 -7.242188 15.65625 -7.984375 C 15.488281 -8.722656 15.304688 -9.515625 15.109375 -10.359375 C 14.910156 -11.203125 14.726562 -11.984375 14.5625 -12.703125 C 14.394531 -13.429688 14.273438 -13.960938 14.203125 -14.296875 L 14.046875 -14.296875 C 13.972656 -13.960938 13.851562 -13.429688 13.6875 -12.703125 C 13.53125 -11.984375 13.351562 -11.195312 13.15625 -10.34375 C 12.957031 -9.5 12.769531 -8.703125 12.59375 -7.953125 C 12.425781 -7.203125 12.296875 -6.632812 12.203125 -6.25 L 10.75 0 L 5.453125 0 L 0.328125 -18.0625 L 5.234375 -18.0625 L 7.3125 -10.0625 C 7.457031 -9.5 7.59375 -8.832031 7.71875 -8.0625 C 7.851562 -7.289062 7.96875 -6.546875 8.0625 -5.828125 C 8.164062 -5.117188 8.242188 -4.554688 8.296875 -4.140625 L 8.4375 -4.140625 C 8.457031 -4.453125 8.5 -4.863281 8.5625 -5.375 C 8.632812 -5.894531 8.71875 -6.429688 8.8125 -6.984375 C 8.90625 -7.535156 8.988281 -8.035156 9.0625 -8.484375 C 9.144531 -8.929688 9.207031 -9.238281 9.25 -9.40625 L 11.484375 -18.0625 L 16.90625 -18.0625 L 19.03125 -9.40625 C 19.101562 -9.09375 19.203125 -8.59375 19.328125 -7.90625 C 19.453125 -7.226562 19.5625 -6.53125 19.65625 -5.8125 C 19.75 -5.101562 19.800781 -4.546875 19.8125 -4.140625 L 19.953125 -4.140625 C 19.992188 -4.503906 20.066406 -5.046875 20.171875 -5.765625 C 20.273438 -6.484375 20.398438 -7.238281 20.546875 -8.03125 C 20.691406 -8.820312 20.84375 -9.5 21 -10.0625 L 23.15625 -18.0625 L 27.984375 -18.0625 L 22.796875 0 Z M 17.421875 0 "/></g></g></g><g fill="#004aad" fill-opacity="1"><g transform="translate(268.757971, 188.447508)"><g><path d="M 15.1875 -5.359375 C 15.1875 -4.128906 14.894531 -3.09375 14.3125 -2.25 C 13.738281 -1.40625 12.878906 -0.765625 11.734375 -0.328125 C 10.597656 0.109375 9.179688 0.328125 7.484375 0.328125 C 6.222656 0.328125 5.140625 0.242188 4.234375 0.078125 C 3.335938 -0.078125 2.429688 -0.347656 1.515625 -0.734375 L 1.515625 -4.796875 C 2.492188 -4.359375 3.546875 -3.992188 4.671875 -3.703125 C 5.796875 -3.421875 6.785156 -3.28125 7.640625 -3.28125 C 8.597656 -3.28125 9.285156 -3.421875 9.703125 -3.703125 C 10.117188 -3.992188 10.328125 -4.367188 10.328125 -4.828125 C 10.328125 -5.128906 10.238281 -5.398438 10.0625 -5.640625 C 9.894531 -5.890625 9.535156 -6.164062 8.984375 -6.46875 C 8.441406 -6.769531 7.582031 -7.171875 6.40625 -7.671875 C 5.28125 -8.140625 4.351562 -8.617188 3.625 -9.109375 C 2.894531 -9.597656 2.351562 -10.171875 2 -10.828125 C 1.65625 -11.492188 1.484375 -12.335938 1.484375 -13.359375 C 1.484375 -15.023438 2.128906 -16.28125 3.421875 -17.125 C 4.722656 -17.96875 6.460938 -18.390625 8.640625 -18.390625 C 9.765625 -18.390625 10.832031 -18.273438 11.84375 -18.046875 C 12.863281 -17.828125 13.910156 -17.46875 14.984375 -16.96875 L 13.5 -13.421875 C 12.601562 -13.804688 11.757812 -14.125 10.96875 -14.375 C 10.175781 -14.625 9.375 -14.75 8.5625 -14.75 C 7.84375 -14.75 7.296875 -14.648438 6.921875 -14.453125 C 6.554688 -14.265625 6.375 -13.96875 6.375 -13.5625 C 6.375 -13.269531 6.46875 -13.007812 6.65625 -12.78125 C 6.84375 -12.5625 7.207031 -12.3125 7.75 -12.03125 C 8.300781 -11.757812 9.101562 -11.410156 10.15625 -10.984375 C 11.175781 -10.566406 12.0625 -10.128906 12.8125 -9.671875 C 13.570312 -9.210938 14.15625 -8.644531 14.5625 -7.96875 C 14.976562 -7.300781 15.1875 -6.429688 15.1875 -5.359375 Z M 15.1875 -5.359375 "/></g></g></g></svg>